<?xml version="1.0" encoding="utf-8"?>
<!DOCTYPE svg PUBLIC "-//W3C//DTD SVG 20010904//EN" "http://www.w3.org/TR/2001/REC-SVG-20010904/DTD/svg10.dtd">
<svg version="1.0" xmlns="http://www.w3.org/2000/svg" width="1300px" height="769px" viewBox="0 0 1300 769" preserveAspectRatio="xMidYMid meet">
 <g fill="#000000">
  <path d="M590 703.9 c-13.4 -1.4 -37.4 -5.6 -50 -8.8 -12.9 -3.3 -37.3 -11.3 -32.3 -10.6 1.8 0.2 11.5 1 21.5 1.6 92 5.8 168.3 -20 233.3 -78.8 33.6 -30.4 57 -61.1 74.6 -97.8 17.5 -36.6 26.8 -73 29.5 -115.3 l0.7 -11.2 -237.9 0.2 -237.9 0.3 -27 9.8 c-50.2 18.3 -72 25.9 -76.5 26.5 -5.5 0.8 -22 0.3 -22 -0.6 0 -0.4 4.1 -3.1 9.2 -6.1 14.2 -8.3 20.4 -12.4 19.2 -12.8 -0.7 -0.2 -10.8 4 -22.5 9.3 l-21.4 9.7 -37 -0.3 c-20.3 -0.1 -43.7 -0.5 -52 -0.9 l-15 -0.6 5.2 -2.7 c5.2 -2.8 7.4 -4.8 5.3 -4.8 -0.7 0 -5.4 1.8 -10.6 3.9 l-9.4 4 -52.3 -0.9 c-60.4 -1.1 -52.7 -0.8 -52.7 -1.8 0 -0.5 2.1 -1.8 4.7 -3 3.7 -1.7 78 -29 98.5 -36.3 2.1 -0.7 3.5 -1.6 3 -2.1 -0.4 -0.4 -24.1 -9.3 -52.7 -19.8 -28.5 -10.5 -52.3 -19.4 -52.8 -19.9 -2.6 -2.6 1.1 -3.1 23.1 -3.2 12.5 -0.1 34.2 -0.4 48.2 -0.8 l25.5 -0.7 18.2 6.8 c10 3.7 19 6.8 20 6.8 2.1 -0.1 -2.6 -3.2 -13.2 -8.8 l-7 -3.7 11.5 -0.6 c6.3 -0.4 24.3 -0.7 40 -0.8 l28.5 -0.1 7.5 2.9 c4.1 1.6 10.1 4.1 13.4 5.6 9.7 4.3 10 2.5 0.6 -3.6 l-8.5 -5.4 11.5 -0.6 c6.3 -0.4 17 -0.7 23.8 -0.8 l12.3 -0.1 23.7 8.4 c13 4.7 36.4 13 52 18.5 l28.2 10.1 237.5 0 237.5 0 0 -4.9 c0 -21.5 -8 -64.4 -16.5 -89.1 -19.6 -56.5 -59.2 -109.7 -110.3 -148.3 -41.8 -31.5 -85.3 -49.7 -138.2 -57.8 -12.4 -1.9 -18.8 -2.3 -44.5 -2.3 -16.5 -0.1 -34.5 0.2 -40 0.6 -9.3 0.6 -9.8 0.6 -6.7 -0.8 5.8 -2.5 29.7 -9.2 42.4 -11.8 28.1 -5.7 32.6 -6.1 71.8 -6 32.2 0.1 38.1 0.4 49.8 2.2 74.6 12 130.3 40.4 183.8 93.7 40.5 40.4 65 79.5 81.9 131 8.4 25.4 12.4 46 14.5 74.5 1.5 20.3 0.6 18.6 9.6 19.4 9.8 0.8 143.7 0.6 152.4 -0.3 l6.5 -0.6 -10.5 -7.2 c-5.8 -3.9 -11.6 -8.3 -12.9 -9.7 l-2.4 -2.6 3 0 c6.1 0 155.2 27.5 156.6 28.9 0.7 0.7 0.2 1.4 -1.4 2 -1.3 0.6 -35.5 7.1 -75.9 14.6 -40.4 7.4 -74.8 13.7 -76.5 14 -1.6 0.3 -3.7 0.1 -4.5 -0.4 -1.7 -1.2 -2.6 -0.4 12.9 -11.1 5.2 -3.6 9.6 -7 9.8 -7.6 0.3 -0.8 -22.8 -1.3 -81.9 -1.6 -45.3 -0.3 -82.5 -0.4 -82.7 -0.2 -0.2 0.2 -1 7.7 -1.8 16.6 -4.1 49.3 -13.1 82.5 -33.4 123 -31.2 62.4 -89.9 120.5 -152.4 150.8 -36.1 17.5 -75.8 28.2 -114.4 31 -16.2 1.2 -53.1 1.1 -65.1 -0.1z m-332.2 -297.1 c7.8 -3.4 14.2 -6.7 14.2 -7.3 0 -0.8 -6.7 1.2 -17.2 5 -24.4 8.9 -23.3 8.4 -16.8 8.4 4.6 0.1 7.8 -0.9 19.8 -6.1z m133 -33 c0.3 -1.7 -6 -1.8 -121.2 -1.8 -106.8 0 -121.6 0.2 -121.6 1.5 0 1.9 13.3 2.1 145 2 92 0 97.5 -0.1 97.8 -1.7z m33.2 0.2 c0 -1.3 -0.7 -2 -2 -2 -1.3 0 -2 0.7 -2 2 0 1.3 0.7 2 2 2 1.3 0 2 -0.7 2 -2z m37.4 1.4 c0.9 -0.3 1.6 -1.2 1.6 -2 0 -1 -1.3 -1.4 -4.5 -1.4 -4.3 0 -5.8 1.4 -3.8 3.3 0.8 0.9 4.6 0.9 6.7 0.1z m401.6 -1.4 c0 -2 -0.7 -2 -185.5 -2 -184.8 0 -185.5 0 -185.5 2 0 2 0.7 2 185.5 2 184.8 0 185.5 0 185.5 -2z m130 0 c0 -1.1 -0.7 -2 -1.5 -2 -0.8 0 -1.5 0.9 -1.5 2 0 1.1 0.7 2 1.5 2 0.8 0 1.5 -0.9 1.5 -2z m16 0 c0 -1.1 -0.4 -2 -1 -2 -0.5 0 -1 0.9 -1 2 0 1.1 0.5 2 1 2 0.6 0 1 -0.9 1 -2z m49.8 0 c-1.1 -1.8 -2.4 -2 -11 -2 -9.1 0 -9.8 0.1 -9.8 2 0 1.9 0.7 2 11 2 10.8 0 11 0 9.8 -2z m21.2 1.6 c0 -0.2 -0.3 -1.1 -0.6 -2 -0.9 -2.3 -2.4 -2 -2.4 0.4 0 1.1 0.7 2 1.5 2 0.8 0 1.5 -0.2 1.5 -0.4z m32 -1.6 c0 -2 -0.5 -2.1 -11.7 -1.8 -10.3 0.3 -11.8 0.5 -12.1 2.1 -0.3 1.5 0.8 1.7 11.7 1.7 11.5 0 12.1 -0.1 12.1 -2z m26 1 c0 -0.6 -3.2 -1 -7.5 -1 -4.3 0 -7.5 0.4 -7.5 1 0 0.6 3.2 1 7.5 1 4.3 0 7.5 -0.4 7.5 -1z m-926.9 -15.6 c-1.8 -0.8 -3.6 -1.2 -3.9 -0.9 -1 1 2.1 2.5 4.8 2.4 2.3 -0.1 2.2 -0.2 -0.9 -1.5z m91.9 -0.4 c-2.1 -1.1 -3.6 -1.4 -3.9 -0.8 -0.5 1.4 1.9 2.8 4.9 2.7 2.3 0 2.3 -0.1 -1 -1.9z"/>
 </g>
 <g fill="#ffffff">
  <path d="M217.4 414.9 c-0.2 -0.3 6.7 -3.2 15.4 -6.4 8.6 -3.2 23.4 -8.6 32.7 -12.1 27.2 -10.1 36.5 -13.3 36.5 -12.6 0 0.4 -5.7 3.6 -12.6 7 -6.9 3.5 -12.4 6.6 -12.1 6.8 0.2 0.2 4.6 -1.4 9.8 -3.5 18.7 -7.9 25.5 -10.3 29.9 -10.7 5.6 -0.5 4.5 0.5 -5 4.4 -4.1 1.7 -20.5 8.8 -36.5 15.7 l-29 12.6 -14.3 -0.3 c-7.9 -0.2 -14.6 -0.6 -14.8 -0.9z"/>
  <path d="M162 411.9 c3 -1.7 14.5 -7.5 25.4 -13 11 -5.4 20.2 -10.1 20.4 -10.4 0.8 -0.8 -16.6 5.4 -61.1 21.6 -10 3.7 -11.6 4 -19.5 3.7 l-8.7 -0.3 44.6 -14.8 44.6 -14.8 10.7 -0.1 c5.9 0 10.9 0.1 11.1 0.4 0.2 0.2 -8.2 4.2 -18.8 8.8 -38 16.5 -46.2 20.2 -46.5 21.1 -0.2 0.5 -2 0.9 -4 0.9 l-3.7 0 5.5 -3.1z"/>
  <path d="M202.5 409.9 c28 -13.8 54.9 -25.9 57.9 -25.8 2.6 0 1.5 0.8 -7.1 5.1 -5.7 2.9 -10.1 5.3 -9.9 5.5 0.2 0.2 3.2 -0.7 6.7 -2.1 18.7 -7.2 23.5 -8.6 29.6 -9 3.6 -0.2 6.1 -0.1 5.7 0.4 -0.5 0.4 -4.8 2.2 -9.6 3.9 -4.8 1.6 -14.7 5.3 -22 8 -43.3 16.2 -51.9 19.1 -56.5 19 l-4.8 0 10 -5z"/>
  <path d="M307 409.7 c0 -0.3 11.6 -6.2 25.7 -13.2 l25.7 -12.6 10.3 -0.2 c5.7 -0.1 10.3 0 10.3 0.3 0 0.3 -6.6 2.8 -14.7 5.7 -16.8 5.8 -52.9 18.7 -55.5 19.8 -1 0.4 -1.8 0.5 -1.8 0.2z"/>
  <path d="M141.8 377.9 c-0.5 -0.3 0 -0.9 1.1 -1.2 3.1 -0.8 2.7 -4.3 -0.6 -6.1 -2.5 -1.4 11.1 -1.5 124.5 -1.6 l127.3 0 -0.3 4.8 -0.3 4.7 -125.3 0 c-69 0 -125.8 -0.3 -126.4 -0.6z"/>
  <path d="M417 374.1 l0 -5.1 4.9 0 c5.3 0 5.7 0.4 5.6 6 l0 3.5 -5.2 0.3 -5.3 0.3 0 -5z"/>
  <path d="M432 374.1 c0 -4.8 0.2 -5.1 2.6 -5.1 2.4 0 2.5 0.2 2.2 4.8 -0.3 4 -0.6 4.7 -2.5 5 -2.1 0.3 -2.3 0 -2.3 -4.7z"/>
  <path d="M451.7 378.3 c-0.4 -0.3 -0.7 -2.6 -0.7 -5 l0 -4.3 7.5 0 7.5 0 0 4.4 c0 3.1 -0.5 4.6 -1.6 5 -2.1 0.8 -11.9 0.8 -12.7 -0.1z"/>
  <path d="M489 374 l0 -5 188.5 0 c202.3 0 188.8 -0.3 188.8 4.5 0 0.8 -0.1 2.4 -0.2 3.5 -0.1 2 -0.8 2 -188.6 2 l-188.5 0 0 -5z"/>
  <path d="M987 373.7 c0 -5 0.2 -5.3 2.3 -5.1 1.2 0.1 3.2 0.3 4.5 0.3 2 0.1 2.2 0.6 2.2 5.1 l0 5 -4.5 0 -4.5 0 0 -5.3z"/>
  <path d="M1004 374 l0 -5 4 0 4 0 0 5 0 5 -4 0 -4 0 0 -5z"/>
  <path d="M1020 373.7 l0 -5.4 3.5 0 3.5 0 0 5.4 0 5.3 -3.5 0 -3.5 0 0 -5.3z"/>
  <path d="M1035 374 l0 -5 13 0 c7.2 0 13 0.3 13 0.8 0 0.4 0.9 1.8 2.1 3.2 l2 2.5 -0.7 -3.7 c-0.6 -3.6 -0.6 -3.7 2.2 -3.2 1.6 0.3 3.9 1.5 5.2 2.6 l2.2 2.1 0 -2.1 c0 -1.9 0.6 -2.2 3.9 -2.2 3.5 0 4 0.4 5.1 3.3 l1.3 3.2 0.6 -3 0.6 -3 10 -0.5 c5.5 -0.3 12.1 -0.3 14.7 -0.2 4.4 0.4 4.6 0.5 5.3 3.9 0.3 1.9 0.9 4.1 1.2 4.9 0.4 1.2 -5.4 1.4 -40.6 1.4 l-41.1 0 0 -5z"/>
  <path d="M1120 375 c0 -3.8 0.1 -4 3.3 -4 6.7 0 101.3 3.1 102.7 3.3 0.8 0.2 -6.6 0.7 -16.5 1.1 -9.9 0.4 -31 1.4 -47 2.1 -15.9 0.8 -32 1.5 -35.7 1.5 l-6.8 0 0 -4z"/>
  <path d="M441.3 373.5 c0.1 -4.3 0.2 -4.5 2.9 -4.5 2.7 0 2.8 0.2 2.8 4.5 0 4.3 -0.1 4.5 -2.9 4.5 -2.8 0 -2.9 -0.2 -2.8 -4.5z"/>
  <path d="M361 364 c-3.2 -0.5 -54.4 -24.9 -53.7 -25.7 0.2 -0.1 9.3 2.9 20.3 6.8 10.9 3.8 22.4 7.9 25.4 8.9 3 1.1 10.5 3.7 16.5 5.9 l11 3.9 -8 0.4 c-4.4 0.1 -9.6 0.1 -11.5 -0.2z"/>
  <path d="M162.5 349.1 c-44.4 -14.9 -46.9 -16 -34.9 -16.1 4.1 0 9.5 1.8 55.3 18.6 11.2 4.2 20.5 7.4 20.6 7.2 0.2 -0.2 -2.2 -1.7 -5.3 -3.3 -15.4 -8.1 -38.8 -20.8 -39.6 -21.6 -1.8 -1.7 3.4 -0.9 7.4 1.1 3.5 1.8 14.1 6.5 48.8 21.6 17.6 7.6 17.4 7.3 3.7 7.3 l-12 -0.1 -44 -14.7z"/>
  <path d="M284.5 358.5 c-7.7 -3 -26.5 -10 -41.8 -15.7 -27.2 -10.1 -27.7 -10.3 -22.5 -10.6 4.2 -0.3 7.8 0.6 19.2 4.7 36.6 13.2 56 20 56.3 19.8 0.1 -0.2 -5.9 -3.6 -13.5 -7.7 -24.6 -13.2 -26.7 -14.3 -28.7 -15.7 -1.9 -1.3 -1.9 -1.3 0.1 -1.3 1.7 0 65.8 30.1 67.3 31.5 0.2 0.3 -4.7 0.5 -11 0.4 -11.3 0 -11.5 -0.1 -25.4 -5.4z"/>
 </g>
</svg>